<svg width="512" height="512" viewBox="0 0 512 512" fill="none" xmlns="http://www.w3.org/2000/svg">
<path d="M248.932 125.331C251.938 119.661 260.062 119.661 263.068 125.331L304.743 203.936C305.493 205.351 306.649 206.507 308.064 207.257L386.669 248.932C392.339 251.938 392.339 260.062 386.669 263.068L308.064 304.743C306.649 305.493 305.493 306.649 304.743 308.064L263.068 386.669C260.062 392.339 251.938 392.339 248.932 386.669L207.257 308.064C206.507 306.649 205.351 305.493 203.936 304.743L125.331 263.068C119.661 260.062 119.661 251.938 125.331 248.932L203.936 207.257C205.351 206.507 206.507 205.351 207.257 203.936L248.932 125.331Z" fill="white"/>
</svg>
